<svg id="Layer_1" enable-background="new 0 0 514 514" height="512" viewBox="0 0 514 514" width="512" xmlns="http://www.w3.org/2000/svg"><g><path d="m499 394.5h-484c-8.284 0-15 6.716-15 15 0 46.869 38.131 85 85 85h344c46.869 0 85-38.131 85-85 0-8.284-6.716-15-15-15z"/><path d="m352.001 55.713v28.787h28.787z"/><path d="m417.001 34.5c0-8.284-6.716-15-15-15h-43.787l58.787 58.787z"/><path d="m417.001 114.5h-80c-8.284 0-15-6.716-15-15v-80h-212.001c-8.284 0-15 6.716-15 15v330h322.001zm-247.001-64h92.001c8.284 0 15 6.716 15 15s-6.716 15-15 15h-92.001c-8.284 0-15-6.716-15-15s6.716-15 15-15zm0 59.999h92.001c8.284 0 15 6.716 15 15s-6.716 15-15 15h-92.001c-8.284 0-15-6.716-15-15s6.716-15 15-15zm172.002 225h-172.002c-8.284 0-15-6.716-15-15s6.716-15 15-15h172.002c8.284 0 15 6.716 15 15s-6.716 15-15 15zm0-60.001h-172.002c-8.284 0-15-6.716-15-15s6.716-15 15-15h172.002c8.284 0 15 6.716 15 15s-6.716 15-15 15zm0-60h-172.002c-8.284 0-15-6.716-15-15s6.716-15 15-15h172.002c8.284 0 15 6.716 15 15s-6.716 15-15 15z"/><path d="m479 85.274c0-8.284-6.716-15-15-15h-16.999v294.226h31.999z"/><path d="m65 70.274h-15c-8.284 0-15 6.716-15 15v279.226h30z"/></g></svg>